<svg xmlns="http://www.w3.org/2000/svg" xmlns:xlink="http://www.w3.org/1999/xlink" viewBox="0,0,256,256" width="16px" height="16px"><g fill="#4997fb" fill-rule="nonzero" stroke="none" stroke-width="1" stroke-linecap="butt" stroke-linejoin="miter" stroke-miterlimit="10" stroke-dasharray="" stroke-dashoffset="0" font-family="none" font-weight="none" font-size="none" text-anchor="none" style="mix-blend-mode: normal"><g transform="scale(5.33333,5.33333)"><path d="M13.5,5c-3.584,0 -6.5,2.916 -6.5,6.5c0,3.06722 2.13764,5.63869 5,6.31836v0.18164v1.5v10.68164c-2.86236,0.67967 -5,3.25114 -5,6.31836c0,3.584 2.916,6.5 6.5,6.5c3.584,0 6.5,-2.916 6.5,-6.5c0,-3.06722 -2.13764,-5.63869 -5,-6.31836v-4.69531c1.25512,0.94576 2.8107,1.51367 4.5,1.51367h8.68164c0.67967,2.86236 3.25114,5 6.31836,5c3.584,0 6.5,-2.916 6.5,-6.5c0,-3.584 -2.916,-6.5 -6.5,-6.5c-3.06722,0 -5.63869,2.13764 -6.31836,5h-8.68164c-2.481,0 -4.5,-2.019 -4.5,-4.5v-1.5v-0.18164c2.86236,-0.67967 5,-3.25114 5,-6.31836c0,-3.584 -2.916,-6.5 -6.5,-6.5z"></path></g></g></svg>