<svg xmlns="http://www.w3.org/2000/svg" xmlns:xlink="http://www.w3.org/1999/xlink" viewBox="0,0,256,256" width="16px" height="16px"><g fill="#4997fb" fill-rule="nonzero" stroke="none" stroke-width="1" stroke-linecap="butt" stroke-linejoin="miter" stroke-miterlimit="10" stroke-dasharray="" stroke-dashoffset="0" font-family="none" font-weight="none" font-size="none" text-anchor="none" style="mix-blend-mode: normal"><g transform="scale(10.66667,10.66667)"><path d="M21.5,0c-1.37891,0 -2.5,1.12109 -2.5,2.5c0,1.37891 1.12109,2.5 2.5,2.5c1.37891,0 2.5,-1.12109 2.5,-2.5c0,-1.37891 -1.12109,-2.5 -2.5,-2.5zM14,0.5v1.5h-0.59375c-2.41797,0 -4.8125,1.13281 -6.3125,3.09375l-2,2.59375l1.59375,1.21875l2,-2.59375c1.09766,-1.4375 2.9375,-2.3125 4.71875,-2.3125h0.59375v1.5l4.1875,-2.5zM21.5,6c-1.37891,0 -2.5,1.12109 -2.5,2.5c0,1.37891 1.12109,2.5 2.5,2.5c1.37891,0 2.5,-1.12109 2.5,-2.5c0,-1.37891 -1.12109,-2.5 -2.5,-2.5zM14,6.5v1.5h-2.59375c-1.02734,0 -2.12891,0.21875 -3.09375,0.6875c-0.01953,0.01172 -0.04297,0.01953 -0.0625,0.03125l-1.34375,0.5625l0.78125,1.84375l1.40625,-0.59375l0.03125,-0.03125h0.03125c0.62109,-0.3125 1.5,-0.5 2.25,-0.5h2.59375v1.5l4.1875,-2.5zM3,9c-1.65625,0 -3,1.34375 -3,3c0,1.65625 1.34375,3 3,3c1.65625,0 3,-1.34375 3,-3c0,-1.65625 -1.34375,-3 -3,-3zM14,12.5v1.5h-2.5c-0.86719,0 -1.62109,-0.14844 -2.40625,-0.5v-0.03125l-1.40625,-0.59375l-0.78125,1.84375l1.375,0.59375h0.03125c1.00391,0.44141 2.06641,0.6875 3.1875,0.6875h2.5v1.5l4.1875,-2.5zM21.5,13c-1.37891,0 -2.5,1.12109 -2.5,2.5c0,1.37891 1.12109,2.5 2.5,2.5c1.37891,0 2.5,-1.12109 2.5,-2.5c0,-1.37891 -1.12109,-2.5 -2.5,-2.5zM6.6875,15.09375l-1.59375,1.21875l2,2.59375c1.5,1.96094 3.89453,3.09375 6.3125,3.09375h0.59375v1.5l4.1875,-2.5l-4.1875,-2.5v1.5h-0.59375c-1.78125,0 -3.62109,-0.875 -4.71875,-2.3125zM21.5,19c-1.37891,0 -2.5,1.12109 -2.5,2.5c0,1.37891 1.12109,2.5 2.5,2.5c1.37891,0 2.5,-1.12109 2.5,-2.5c0,-1.37891 -1.12109,-2.5 -2.5,-2.5z"></path></g></g></svg>